<?xml version="1.0" standalone="no"?>
<!DOCTYPE svg PUBLIC "-//W3C//DTD SVG 20010904//EN"
 "http://www.w3.org/TR/2001/REC-SVG-20010904/DTD/svg10.dtd">
<svg version="1.0" xmlns="http://www.w3.org/2000/svg"
 width="200" height="80" viewBox="500 200 2000.000000 1004.000000"
 preserveAspectRatio="xMidYMid meet">
<metadata>
Created by potrace 1.16, written by Peter Selinger 2001-2019
</metadata>
<g transform="translate(0.000000,1004.000000) scale(0.100000,-0.100000)"
fill="#000000" stroke="none">
<path d="M16075 6440 c-576 -39 -1024 -338 -1231 -822 -85 -199 -124 -395
-131 -662 -6 -227 5 -351 48 -526 84 -346 236 -591 480 -774 260 -197 597
-296 999 -296 326 1 577 54 897 193 l143 62 0 358 0 357 -46 0 c-43 0 -54 -6
-138 -74 -185 -150 -356 -243 -531 -289 -115 -30 -315 -30 -440 1 -231 58
-401 194 -507 407 -93 185 -130 480 -93 730 60 400 272 655 609 735 106 25
293 28 389 6 181 -42 371 -143 571 -304 83 -67 93 -72 138 -72 l48 0 0 364 0
363 -87 41 c-200 92 -340 138 -533 172 -99 17 -395 43 -455 38 -11 0 -70 -4
-130 -8z"/>
<path d="M2920 4904 l0 -1485 703 4 c755 4 796 7 1022 61 411 99 736 360 930
746 116 230 165 506 144 804 -22 310 -109 555 -276 777 -221 294 -523 468
-934 538 -195 34 -374 41 -991 41 l-598 0 0 -1486z m1285 905 c105 -13 239
-59 328 -111 43 -25 107 -77 159 -128 72 -73 94 -103 132 -181 135 -278 136
-698 2 -974 -93 -191 -272 -333 -498 -395 -90 -24 -281 -40 -484 -40 l-154 0
0 926 0 927 218 -7 c119 -4 253 -12 297 -17z"/>
<path d="M7052 6363 c-5 -16 -249 -676 -542 -1468 -293 -792 -535 -1448 -537
-1457 -5 -17 18 -18 385 -18 l390 0 102 300 103 300 542 0 543 0 69 -202 c39
-112 85 -247 103 -300 l33 -98 400 0 c375 0 399 1 395 18 -4 13 -971 2635
-1070 2900 l-19 52 -444 0 -443 0 -10 -27z m624 -1282 c95 -278 172 -506 170
-508 -2 -2 -161 -2 -353 -1 l-351 3 177 517 c97 284 178 511 180 505 2 -7 82
-239 177 -516z"/>
<path d="M9560 6110 l0 -280 340 0 340 0 0 -682 c-1 -376 -5 -728 -9 -783 -10
-111 -37 -200 -80 -260 -119 -167 -464 -213 -792 -104 -65 21 -137 39 -159 39
l-40 0 0 -304 0 -304 48 -11 c215 -46 772 -62 977 -28 270 45 493 161 636 331
70 82 117 174 156 301 l28 90 3 1138 3 1137 -726 0 -725 0 0 -280z"/>
<path d="M11940 4918 c-298 -810 -545 -1479 -548 -1485 -3 -10 78 -13 386 -13
l390 0 29 83 c17 45 63 180 104 300 l74 217 544 -2 543 -3 102 -297 101 -298
401 0 402 0 -49 133 c-27 72 -274 740 -548 1482 l-498 1350 -445 3 -444 2
-544 -1472z m1159 163 c94 -277 170 -506 168 -508 -2 -2 -161 -2 -354 -1
l-349 3 175 512 c97 282 179 509 182 505 3 -4 83 -234 178 -511z"/>
</g>
</svg>
